<svg xmlns="http://www.w3.org/2000/svg" viewBox="0 0 64 64">
  <rect width="64" height="64" rx="14" fill="#f4f0e9"></rect>
  <g transform="translate(-1.2,4)"><path d="M11.5 24 C10.5 21.5 12 19.7 15 19.5 L18 19.3 C19.5 13.5 25.5 10.5 31 12.5 C36.5 14.5 38.8 20 37 25.3 C44 28.5 48.5 35.5 48.5 44.5 L26.5 44.5 C24 44.5 22.5 43.3 22.5 40.8 L22.5 33.5 C18.5 31.5 14 28 11.5 24 Z" fill="none" stroke="#1d1813" stroke-width="3" stroke-linecap="round" stroke-linejoin="round"></path><path d="M27 12.5 C31.5 11.5 34.5 15 33.5 19.5 C32.7 22.8 28.8 23.3 28 20.3 C27.4 18 26.8 15 27 12.5 Z" fill="#1d1813" stroke="#1d1813" stroke-width="2.5" stroke-linejoin="round"></path><path d="M49 43 C53.5 43.5 55.5 40 53.5 37" fill="none" stroke="#1d1813" stroke-width="3" stroke-linecap="round" stroke-linejoin="round"></path><circle cx="18.5" cy="21.5" r="2.4" fill="#1d1813"></circle><circle cx="12.8" cy="22" r="2.3" fill="#1d1813"></circle></g>
</svg>